<!--?xml version="1.0" encoding="utf-8"?-->
<!-- Generator: Adobe Illustrator 15.0.0, SVG Export Plug-In . SVG Version: 6.00 Build 0)  -->

<svg xmlns="http://www.w3.org/2000/svg" xmlns:xlink="http://www.w3.org/1999/xlink" width="512px" height="512px" viewBox="0 0 512 512">
<g>

	<path d="M221.76,381.865c19.22,0,34.799,17.207,34.799,38.456c0,21.231-15.579,38.455-34.799,38.455
			c-19.205,0-34.783-17.224-34.783-38.455C186.977,399.072,202.555,381.865,221.76,381.865z" id="path-0" fill="#ff9717" style="position: relative; fill: rgb(255, 151, 23);"></path>
		<path d="M361.066,381.865c19.203,0,34.782,17.207,34.782,38.456c0,21.231-15.579,38.455-34.782,38.455
			c-19.221,0-34.8-17.224-34.8-38.455C326.267,399.072,341.846,381.865,361.066,381.865z" id="path-1" transform="translate(0,0) scale(1)" fill="#ff9d0a" style="position: relative; left: 638.7659912109375px; top: 450.864990234375px; fill: rgb(255, 157, 10);"></path>
		<path d="M452.812,83.405c-7.614-8.471-22.608-8.191-22.608-8.191H123.997L113.88,28.548C110.254,11.814,96.702,0,81.124,0H0
			l15.705,37.265l49.491-0.175c11.225-0.035,20.946,8.682,23.226,20.865l45.121,240.1c5.289,28.163,27.722,48.433,53.733,48.433
			c64.769,0,179.203,0,198.74,0c27.517,0,29.227-33.519,29.227-33.519s-161.519,0-219.067,0c-11.304,0-24.541,1.732-32.931-34.326
			c-3.12-13.354-10.402-53.877-10.402-53.877l274.322-0.402c12.063-0.473,22.323-10.554,23.699-24.225l9.373-94.364
			C461.076,97.111,460.475,91.808,452.812,83.405z M420.451,186.573H145.496l-13.282-68.615h294.982L420.451,186.573z" id="path-2" fill="#f7a00a" style="position: relative; fill: rgb(247, 160, 10);"></path>
</g>
</svg>