<?xml version="1.0" encoding="UTF-8" standalone="no"?>
<!-- Created with Inkscape (http://www.inkscape.org/) -->

<svg
   xmlns:dc="http://purl.org/dc/elements/1.1/"
   xmlns:cc="http://creativecommons.org/ns#"
   xmlns:rdf="http://www.w3.org/1999/02/22-rdf-syntax-ns#"
   xmlns:svg="http://www.w3.org/2000/svg"
   xmlns="http://www.w3.org/2000/svg"
   xmlns:sodipodi="http://sodipodi.sourceforge.net/DTD/sodipodi-0.dtd"
   xmlns:inkscape="http://www.inkscape.org/namespaces/inkscape"
   width="187.4698"
   height="182.80553"
   viewBox="0 0 187.4698 182.80552"
   id="svg4195"
   version="1.1"
   inkscape:version="0.91 r13725"
   sodipodi:docname="mobx-state-tree-logo.svg"
   inkscape:export-filename="/Users/robinfehr/Downloads/fir_logo_white.png"
   inkscape:export-xdpi="125.13"
   inkscape:export-ydpi="125.13">
  <defs
     id="defs4197" />
  <sodipodi:namedview
     id="base"
     pagecolor="#ffffff"
     bordercolor="#666666"
     borderopacity="1.0"
     inkscape:pageopacity="0.0"
     inkscape:pageshadow="2"
     inkscape:zoom="2.8284272"
     inkscape:cx="147.99916"
     inkscape:cy="56.292841"
     inkscape:document-units="px"
     inkscape:current-layer="layer1"
     showgrid="false"
     showguides="true"
     inkscape:guide-bbox="true"
     inkscape:window-width="1440"
     inkscape:window-height="856"
     inkscape:window-x="2353"
     inkscape:window-y="0"
     inkscape:window-maximized="0"
     fit-margin-top="0"
     fit-margin-left="0"
     fit-margin-right="0"
     fit-margin-bottom="0"
     units="px">
    <sodipodi:guide
       position="-1610.32,576.97121"
       orientation="0,1"
       id="guide5159" />
    <sodipodi:guide
       position="-1606.2794,467.87474"
       orientation="1,0"
       id="guide5169" />
    <sodipodi:guide
       position="-1778.0053,576.97121"
       orientation="1,0"
       id="guide5171" />
    <sodipodi:guide
       position="-1433.8056,622.32506"
       orientation="1,0"
       id="guide5173" />
    <sodipodi:guide
       position="-1456.6627,503.03934"
       orientation="0,1"
       id="guide5177" />
    <sodipodi:guide
       position="-221.25907,576.97121"
       orientation="1,0"
       id="guide4404" />
    <sodipodi:guide
       position="-109.70987,391.17453"
       orientation="1,0"
       id="guide4421" />
    <sodipodi:guide
       position="288.29014,387.17453"
       orientation="1,0"
       id="guide4423" />
    <sodipodi:guide
       position="288.29014,277.17453"
       orientation="0,1"
       id="guide4425" />
    <sodipodi:guide
       position="-262,-65.999997"
       orientation="1,0"
       id="guide4498" />
  </sodipodi:namedview>
  <metadata
     id="metadata4200">
    <rdf:RDF>
      <cc:Work
         rdf:about="">
        <dc:format>image/svg+xml</dc:format>
        <dc:type
           rdf:resource="http://purl.org/dc/dcmitype/StillImage" />
        <dc:title />
      </cc:Work>
    </rdf:RDF>
  </metadata>
  <g
     inkscape:label="Layer 1"
     inkscape:groupmode="layer"
     id="layer1"
     transform="translate(-493.09129,-1311.1675)"
     style="opacity:1">
    <path
       style="opacity:1;fill:#ff7102;fill-opacity:1;fill-rule:evenodd;stroke:none;stroke-width:1px;stroke-linecap:butt;stroke-linejoin:miter;stroke-opacity:1"
       d="m 590.4666,1318.1675 c -4.08504,0.01 -8.22957,2.0822 -10.98308,6.1872 l -82.048,123.8925 c -7.21099,15.1902 3.23776,29.7092 17.4018,33.8264 26.60512,5.9254 50.97156,-9.9144 50.97156,-9.9144 35.89186,-22.9664 59.07215,-35.9302 59.07215,-35.9302 28.60462,-14.5005 53.62707,3.2919 53.68007,3.3296 l -77.44305,-115.2039 c -2.53766,-4.1412 -6.56634,-6.1962 -10.65145,-6.1872 z m 0.0336,12.7305 c 3.21451,-0.01 6.3853,1.6115 8.38227,4.8703 18.91369,28.075 40.40957,57.0198 58.50858,85.6015 0,0 -17.27295,-8.9878 -39.80649,2.4351 0,0 -18.24706,10.2045 -46.49076,28.2772 0,0 -19.16902,12.4567 -40.10464,7.7939 -11.14639,-3.2398 -19.3738,-14.667 -13.69973,-26.6205 l 64.57197,-97.4872 c 2.16663,-3.2304 5.4239,-4.8631 8.6388,-4.8703 z"
       id="path5398"
       inkscape:connector-curvature="0"
       inkscape:export-xdpi="248.17999"
       inkscape:export-ydpi="248.17999" />
    <path
       style="fill:#ff7102;fill-opacity:1;fill-rule:evenodd;stroke:none;stroke-width:1px;stroke-linecap:butt;stroke-linejoin:miter;stroke-opacity:1"
       d="m 655.07457,1439.5375 c -30.94339,0.7649 -57.79367,29.6764 -79.66357,38.2208 33.24867,39.9601 132.79176,-7.4463 95.51671,-33.9303 -4.72924,-3.224 -10.0852,-4.433 -15.85314,-4.2905 z m 10.98094,11.4572 c 17.54728,17.5294 -48.35221,48.0236 -76.3743,27.9713 10.73726,-0.8291 55.92637,-44.3079 76.3743,-27.9713 z"
       id="path5404"
       inkscape:connector-curvature="0"
       sodipodi:nodetypes="sccsccc" />
  </g>
</svg>
