<?xml version="1.0" encoding="UTF-8" standalone="no"?>
<!-- Created with Inkscape (http://www.inkscape.org/) -->

<svg
   xmlns:dc="http://purl.org/dc/elements/1.1/"
   xmlns:cc="http://creativecommons.org/ns#"
   xmlns:rdf="http://www.w3.org/1999/02/22-rdf-syntax-ns#"
   xmlns:svg="http://www.w3.org/2000/svg"
   xmlns="http://www.w3.org/2000/svg"
   xmlns:xlink="http://www.w3.org/1999/xlink"
   xmlns:sodipodi="http://sodipodi.sourceforge.net/DTD/sodipodi-0.dtd"
   xmlns:inkscape="http://www.inkscape.org/namespaces/inkscape"
   width="104.25244"
   height="96.08947"
   viewBox="0 0 104.25244 96.089466"
   id="svg4195"
   version="1.1"
   inkscape:version="0.91 r13725"
   sodipodi:docname="mobx-state-tree-logo-gradient.svg"
   inkscape:export-filename="/Users/robinfehr/Downloads/fir_logo_white.png"
   inkscape:export-xdpi="125.13"
   inkscape:export-ydpi="125.13">
  <defs
     id="defs4197">
    <linearGradient
       inkscape:collect="always"
       id="linearGradient4147">
      <stop
         style="stop-color:#ff9d51;stop-opacity:1"
         offset="0"
         id="stop4149" />
      <stop
         style="stop-color:#ff7102;stop-opacity:0.31868133"
         offset="1"
         id="stop4151" />
    </linearGradient>
    <linearGradient
       inkscape:collect="always"
       xlink:href="#linearGradient4147"
       id="linearGradient4153"
       x1="502.60602"
       y1="1481.9227"
       x2="563.88422"
       y2="1403.0233"
       gradientUnits="userSpaceOnUse"
       gradientTransform="matrix(0.56083478,0,0,0.56083478,248.64186,585.23138)" />
    <linearGradient
       inkscape:collect="always"
       xlink:href="#linearGradient4147"
       id="linearGradient5038"
       x1="625.66589"
       y1="1477.8779"
       x2="648.72992"
       y2="1454.814"
       gradientUnits="userSpaceOnUse"
       gradientTransform="translate(6.2236057,0.36609445)" />
  </defs>
  <sodipodi:namedview
     id="base"
     pagecolor="#ffffff"
     bordercolor="#666666"
     borderopacity="1.0"
     inkscape:pageopacity="0.0"
     inkscape:pageshadow="2"
     inkscape:zoom="4"
     inkscape:cx="26.352591"
     inkscape:cy="53.465266"
     inkscape:document-units="px"
     inkscape:current-layer="layer1"
     showgrid="false"
     showguides="false"
     inkscape:guide-bbox="true"
     inkscape:window-width="1920"
     inkscape:window-height="1032"
     inkscape:window-x="1502"
     inkscape:window-y="44"
     inkscape:window-maximized="0"
     fit-margin-top="0"
     fit-margin-left="0"
     fit-margin-right="0"
     fit-margin-bottom="0"
     units="px">
    <sodipodi:guide
       position="-1635.7363,398.10786"
       orientation="1,0"
       id="guide5169" />
    <sodipodi:guide
       position="-1807.4622,507.20433"
       orientation="1,0"
       id="guide5171" />
    <sodipodi:guide
       position="-1463.2625,552.55818"
       orientation="1,0"
       id="guide5173" />
  </sodipodi:namedview>
  <metadata
     id="metadata4200">
    <rdf:RDF>
      <cc:Work
         rdf:about="">
        <dc:format>image/svg+xml</dc:format>
        <dc:type
           rdf:resource="http://purl.org/dc/dcmitype/StillImage" />
        <dc:title></dc:title>
      </cc:Work>
    </rdf:RDF>
  </metadata>
  <g
     inkscape:label="Layer 1"
     inkscape:groupmode="layer"
     id="layer1"
     transform="translate(-522.54818,-1328.1167)"
     style="opacity:1">
    <path
       style="opacity:1;fill:#ff6f00;fill-opacity:1;fill-rule:evenodd;stroke:none;stroke-width:1px;stroke-linecap:butt;stroke-linejoin:miter;stroke-opacity:1"
       d="m 576.83799,1328.9667 c -2.29104,0.01 -4.61544,1.1678 -6.15971,3.47 l -46.01537,69.4833 c -4.04418,8.5191 1.81586,16.6619 9.75954,18.9709 14.92108,3.3232 28.58662,-5.5602 28.58662,-5.5602 20.1294,-12.8804 33.12972,-20.151 33.12972,-20.151 16.04247,-8.1323 30.07592,1.8462 30.10565,1.8673 l -43.43276,-64.6103 c -1.42321,-2.3225 -3.68263,-3.475 -5.97369,-3.47 z m 0.0189,7.1397 c 1.80281,-0.01 3.5811,0.9038 4.70107,2.7314 10.60745,15.7455 22.66308,31.9787 32.81365,48.0083 0,0 -9.68728,-5.0406 -22.32487,1.3656 0,0 -10.23359,5.7232 -26.07364,15.859 -1.54218,0.987 -10.68897,7.1095 -22.49208,4.371 -6.25128,-1.8169 -10.8655,-8.2257 -7.68328,-14.9296 l 36.21419,-54.6743 c 1.21513,-1.8117 3.04191,-2.7274 4.84496,-2.7314 z"
       id="path5398"
       inkscape:connector-curvature="0"
       inkscape:export-xdpi="248.17999"
       inkscape:export-ydpi="248.17999"
       sodipodi:nodetypes="cccccccccccccccccc" />
    <path
       inkscape:export-ydpi="248.17999"
       inkscape:export-xdpi="248.17999"
       inkscape:connector-curvature="0"
       id="path4145"
       d="m 576.82179,1329.7798 c -2.29103,0.01 -4.14481,-0.1419 -5.68909,2.1605 l -43.65578,65.8082 c -4.04417,8.5193 1.95993,16.3721 9.9036,18.6812 14.92108,3.3231 28.58663,-5.5603 28.58663,-5.5603 20.12941,-12.8804 33.12972,-20.1509 33.12972,-20.1509 16.04247,-8.1324 24.58127,4.0493 24.611,4.0706 l -41.72311,-61.0722 c -1.4232,-2.3226 -2.87191,-3.9422 -5.16297,-3.9371 z m 2.99311,1.8654 c 1.80282,-0.01 2.59411,2.0141 3.71408,3.8418 10.60746,15.7454 25.04251,37.5307 35.19308,53.5602 0,0 -10.1615,-4.0001 -15.98138,-3.6758 -16.47387,0.5597 -40.73543,23.927 -55.40123,19.4494 -5.56243,-1.4461 -14.07386,-9.9991 -4.78208,-21.7842 l 32.41259,-48.66 c 1.21513,-1.8116 3.04191,-2.7274 4.84494,-2.7314 z"
       style="opacity:1;fill:url(#linearGradient4153);fill-opacity:1;fill-rule:evenodd;stroke:none;stroke-width:1px;stroke-linecap:butt;stroke-linejoin:miter;stroke-opacity:1"
       sodipodi:nodetypes="ccccccccccccccccc" />
    <g
       style="opacity:1"
       id="layer1-9"
       inkscape:label="Layer 1"
       transform="matrix(0.58156707,0,0,0.58156707,231.37855,567.53751)">
      <path
         sodipodi:nodetypes="sccsccc"
         inkscape:connector-curvature="0"
         id="path5404"
         d="m 656.96257,1425.1851 c -27.21725,0.6728 -50.83427,26.1028 -70.07064,33.6183 29.24493,35.1482 116.80123,-6.5496 84.01477,-29.8445 -4.15975,-2.8358 -8.87076,-3.8992 -13.94413,-3.7738 z m 9.65863,10.0775 c 15.43427,15.4186 -42.52973,42.2407 -67.17745,24.6031 9.4443,-0.7293 49.19182,-38.9725 67.17745,-24.6031 z"
         style="fill:#ff7102;fill-opacity:1;fill-rule:evenodd;stroke:none;stroke-width:1px;stroke-linecap:butt;stroke-linejoin:miter;stroke-opacity:1" />
    </g>
    <g
       transform="matrix(0.58156707,0,0,0.58156707,231.80438,567.53751)"
       inkscape:label="Layer 1"
       id="g5028"
       style="opacity:1">
      <path
         style="fill:url(#linearGradient5038);fill-opacity:1;fill-rule:evenodd;stroke:none;stroke-width:1px;stroke-linecap:butt;stroke-linejoin:miter;stroke-opacity:1"
         d="m 655.32669,1426.0689 c -25.50111,5.2007 -49.34905,29.2693 -62.21115,33.1006 32.28581,26.1248 99.38695,-10.3301 80.39062,-25.7026 -4.15975,-2.8358 -13.20691,-8.4121 -18.17947,-7.398 z m 7.8469,7.435 c 17.83819,7.8909 -32.19004,34.2876 -62.34621,26.3082 29.0207,-17.0841 45.38146,-33.7295 62.34621,-26.3082 z"
         id="path5030"
         inkscape:connector-curvature="0"
         sodipodi:nodetypes="sccsccc" />
    </g>
  </g>
</svg>
