<svg xmlns="http://www.w3.org/2000/svg" width="187.47" height="182.806" viewBox="0 0 187.47 182.806"><g fill="#ff7102" fill-rule="evenodd"><path d="M97.375 7c-4.085.01-8.23 2.082-10.983 6.187L4.344 137.08c-7.21 15.19 3.238 29.709 17.402 33.826 26.605 5.926 50.972-9.914 50.972-9.914 35.891-22.967 59.072-35.93 59.072-35.93 28.604-14.501 53.627 3.291 53.68 3.33L108.027 13.186C105.489 9.046 101.46 6.991 97.375 7zm.034 12.73c3.214-.01 6.385 1.612 8.382 4.87 18.914 28.076 40.41 57.02 58.509 85.602 0 0-17.273-8.987-39.807 2.435 0 0-18.247 10.205-46.49 28.278 0 0-19.17 12.456-40.105 7.794-11.147-3.24-19.374-14.667-13.7-26.621L88.77 24.601c2.167-3.23 5.424-4.863 8.639-4.87z"/><path d="M161.983 128.37c-30.943.765-57.793 29.676-79.663 38.22 33.248 39.96 132.791-7.446 95.516-33.93-4.729-3.224-10.085-4.433-15.853-4.29zm10.981 11.457c17.547 17.53-48.352 48.024-76.374 27.971 10.737-.829 55.926-44.307 76.374-27.97z"/></g></svg>