<svg xmlns="http://www.w3.org/2000/svg" xmlns:xlink="http://www.w3.org/1999/xlink" width="104.252" height="96.089" viewBox="0 0 104.252 96.089"><defs><linearGradient id="a"><stop offset="0" stop-color="#ff9d51"/><stop offset="1" stop-color="#ff7102" stop-opacity=".319"/></linearGradient><linearGradient xlink:href="#a" id="b" x1="502.606" y1="1481.923" x2="563.884" y2="1403.023" gradientUnits="userSpaceOnUse" gradientTransform="translate(248.642 585.231) scale(.56083)"/><linearGradient xlink:href="#a" id="c" x1="625.666" y1="1477.878" x2="648.73" y2="1454.814" gradientUnits="userSpaceOnUse" gradientTransform="translate(6.224 .366)"/></defs><path d="M54.29.85c-2.291.01-4.616 1.168-6.16 3.47L2.115 73.803c-4.044 8.52 1.816 16.662 9.76 18.971 14.92 3.323 28.586-5.56 28.586-5.56 20.13-12.88 33.13-20.151 33.13-20.151 16.042-8.132 30.076 1.846 30.105 1.867L60.263 4.32C58.84 1.997 56.581.845 54.29.85zm.019 7.14c1.803-.01 3.58.903 4.7 2.731C69.618 26.467 81.674 42.7 91.824 58.73c0 0-9.687-5.04-22.324 1.366 0 0-10.234 5.723-26.074 15.859-1.542.987-10.689 7.11-22.492 4.371-6.251-1.817-10.866-8.226-7.683-14.93l36.214-54.674c1.215-1.812 3.042-2.727 4.845-2.731z" fill="#ff6f00" fill-rule="evenodd"/><path d="M576.822 1329.78c-2.291.01-4.145-.142-5.69 2.16l-43.655 65.808c-4.044 8.52 1.96 16.373 9.904 18.682 14.92 3.323 28.586-5.56 28.586-5.56 20.13-12.881 33.13-20.152 33.13-20.152 16.042-8.132 24.581 4.05 24.61 4.071l-41.722-61.072c-1.423-2.323-2.872-3.942-5.163-3.937zm2.993 1.865c1.803-.01 2.594 2.014 3.714 3.842 10.607 15.745 25.042 37.53 35.193 53.56 0 0-10.161-4-15.981-3.676-16.474.56-40.736 23.927-55.402 19.45-5.562-1.446-14.073-10-4.782-21.784l32.413-48.66c1.215-1.812 3.042-2.728 4.845-2.732z" fill="url(#b)" fill-rule="evenodd" transform="translate(-522.548 -1328.117)"/><path d="M90.898 68.262c-15.828.39-29.563 15.18-40.75 19.55 17.007 20.442 67.927-3.808 48.86-17.356-2.42-1.649-5.16-2.267-8.11-2.194zm5.617 5.86c8.976 8.967-24.734 24.566-39.068 14.309 5.493-.425 28.608-22.665 39.068-14.309z" fill="#ff7102" fill-rule="evenodd"/><path d="M655.327 1426.069c-25.501 5.2-49.35 29.27-62.211 33.1 32.285 26.125 99.386-10.33 80.39-25.702-4.16-2.836-13.207-8.412-18.18-7.398zm7.847 7.435c17.838 7.89-32.19 34.288-62.347 26.308 29.021-17.084 45.382-33.73 62.347-26.308z" fill="url(#c)" fill-rule="evenodd" transform="translate(-290.744 -760.58) scale(.58157)"/></svg>